<svg width="48" height="48" viewBox="0 0 48 48" fill="none" xmlns="http://www.w3.org/2000/svg">
<rect width="48" height="48" fill="#ECEFF1"/>
<rect width="2144" height="493" transform="translate(-320 -374)" fill="white"/>
<g clip-path="url(#clip0)">
<rect width="48" height="48" rx="6" fill="#ECEFF1"/>
<path d="M41.4918 38.034C40.4478 37.209 39.1758 36.615 37.7958 36.327L31.2168 35.007C30.5268 34.875 30.0288 34.257 30.0288 33.537V32.028C30.4518 31.434 30.8508 30.645 31.2678 29.82C31.5918 29.181 32.0808 28.218 32.3238 27.969C33.6558 26.631 34.9428 25.128 35.3418 23.19C35.7138 21.372 35.3478 20.418 34.9188 19.65C34.9188 17.733 34.8588 15.333 34.4058 13.587C34.3518 11.223 33.9228 9.894 32.8428 8.73C32.0808 7.905 30.9588 7.713 30.0558 7.56C29.7018 7.5 29.2128 7.416 29.0328 7.32C27.4338 6.456 25.8528 6.033 23.9658 6C20.0148 6.162 15.1578 8.676 13.5318 13.158C13.0278 14.523 13.0788 16.764 13.1208 18.564L13.0818 19.647C12.6948 20.403 12.3138 21.363 12.6888 23.187C13.0848 25.128 14.3718 26.634 15.7278 27.99C15.9498 28.218 16.4508 29.19 16.7808 29.832C17.2038 30.654 17.6058 31.44 18.0288 32.031V33.54C18.0288 34.257 17.5278 34.875 16.8348 35.01L10.2498 36.33C8.8788 36.621 7.6068 37.209 6.5658 38.034C6.2418 38.295 5.5 39 5 40C4.5 41 4.5 40 3.5 47.5C4.5 48.5 17.271 48 24 48C30.729 48 42 48 44 48C44.5 47 43.3953 42 43 41C42.6908 40.218 42.5 39.5 41.4918 38.034Z" fill="#455A64"/>
</g>
<defs>
<clipPath id="clip0">
<rect width="48" height="48" rx="8" fill="white"/>
</clipPath>
</defs>
</svg>
