<svg width="48" height="48" viewBox="0 0 48 48" fill="none" xmlns="http://www.w3.org/2000/svg">
<rect width="48" height="48" fill="#ECEFF1"/>
<rect width="2144" height="493" transform="translate(-416 -374)" fill="white"/>
<g clip-path="url(#clip0)">
<rect width="48" height="48" rx="6" fill="#ECEFF1"/>
<path d="M41.463 38.037C40.419 37.212 39.147 36.618 37.767 36.33L31.188 35.01C30.498 34.875 30 34.257 30 33.54V31.83C36.555 31.203 37.5 29.865 37.5 28.5C37.5 24.465 34.818 15.096 34.377 13.572C34.32 11.217 33.891 9.894 32.814 8.733C32.052 7.908 30.93 7.716 30.027 7.563C29.673 7.5 29.184 7.419 29.004 7.32C27.405 6.456 25.824 6.036 23.937 6C19.986 6.162 15.129 8.676 13.467 13.272C13.347 13.701 10.5 23.847 10.5 28.5C10.5 30.441 12.693 31.464 18 31.932V33.54C18 34.257 17.499 34.875 16.806 35.01L10.221 36.33C8.85003 36.621 7.57803 37.209 6.53703 38.034C6.21303 38.295 6.09335 38.3596 4.99988 40C4 41.5 1.72105 46.691 2.00005 47C6.48205 51.947 17.271 48 24 48C30.729 48 42.5212 53.947 47.0002 49C47.0002 46.5 43.8882 40.388 42.5002 39C41.1122 37.612 41.787 38.295 41.463 38.037Z" fill="#455A64"/>
</g>
<defs>
<clipPath id="clip0">
<rect width="48" height="48" rx="8" fill="white"/>
</clipPath>
</defs>
</svg>
